# xmcd CD database file
#
# Track frame offsets:
#	150
#	14231
#	26323
#	41972
#	57780
#	69723
#	78394
#	92003
#	107140
#	118827
#	134147
#	145646
#	160248
#	175021
#	188471
#	200565
#	209741
#	224255
#	240040
#	258560
#
# Disc length: 3744 seconds
#
# Revision: 0
# Processed by: cddbd v1.5.2PL0 Copyright (c) Steve Scherf et al.
# Submitted via: ACXtractor (MTCDDB.DLL V2003.12.21)
#
DISCID=260e9e14
DTITLE=OLIVE BICE - IF MEMORIES WERE DIAMONDS
DYEAR=1999
DGENRE=Country
TTITLE0=If Memories were Diamonds
TTITLE1=Shadows and Willows
TTITLE2=This Man's Heart
TTITLE3=Nobody Lives Here Anymore
TTITLE4=Lonely Places
TTITLE5=Molly-O
TTITLE6=Proud to be Australian
TTITLE7=Swaggie Joe
TTITLE8=Wild Wild Girl Called Sal
TTITLE9=It's You
TTITLE10=You Sent me Down an Angel
TTITLE11=Sleepy Times
TTITLE12=Single Yellow Rose
TTITLE13=Together Forever
TTITLE14=Route of the Swagman
TTITLE15=Pub Down Under
TTITLE16=Loving You
TTITLE17=Daddy's Coming Soon
TTITLE18=The Old Rugged Cross
TTITLE19=Bridge Over Troubled Waters
EXTD=ID3G:   2 YEAR: 1999
EXTT0=
EXTT1=
EXTT2=
EXTT3=
EXTT4=
EXTT5=
EXTT6=
EXTT7=
EXTT8=
EXTT9=
EXTT10=
EXTT11=
EXTT12=
EXTT13=
EXTT14=
EXTT15=
EXTT16=
EXTT17=
EXTT18=
EXTT19=
PLAYORDER=
